<svg width="14" height="8" viewBox="0 0 14 8" fill="none" xmlns="http://www.w3.org/2000/svg">
<path d="M8.58789 0.359375C9.06641 0.359375 9.30566 0.491211 9.30566 0.754883C9.30566 0.982747 9.125 1.31641 8.76367 1.75586C8.7181 1.8112 8.62044 1.9056 8.4707 2.03906L7.91406 2.53711L6.25391 3.91895C6.33529 4.06543 6.47363 4.24121 6.66895 4.44629C6.86426 4.65137 7.03841 4.81901 7.19141 4.94922C7.52344 5.24219 7.72526 5.38867 7.79688 5.38867C7.87174 5.38867 7.96452 5.361 8.0752 5.30566C8.18913 5.25033 8.31608 5.17871 8.45605 5.09082C8.59603 4.99967 8.74414 4.89714 8.90039 4.7832L10.1309 3.85059C10.248 3.75944 10.3652 3.71387 10.4824 3.71387C10.7266 3.71387 10.8486 3.81478 10.8486 4.0166C10.8486 4.28027 10.7201 4.58789 10.4629 4.93945C10.3848 5.04362 10.3099 5.13151 10.2383 5.20312L9.93066 5.48633C9.03874 6.30339 8.24609 6.84375 7.55273 7.10742C7.33789 7.19206 7.14583 7.23438 6.97656 7.23438C6.80729 7.23438 6.64453 7.20508 6.48828 7.14648C6.33203 7.08789 6.17741 7.00977 6.02441 6.91211C5.87142 6.81445 5.72168 6.70215 5.5752 6.5752C5.43197 6.44499 5.29525 6.30827 5.16504 6.16504C4.92741 5.90462 4.70605 5.61816 4.50098 5.30566L3.60254 5.97461C2.64551 6.67122 2.0612 7.01953 1.84961 7.01953C1.62174 7.01953 1.40202 6.95443 1.19043 6.82422C1.12858 6.78841 1.08626 6.74935 1.06348 6.70703C0.943034 6.58659 0.882812 6.33919 0.882812 5.96484C0.882812 5.59049 0.913737 5.25684 0.975586 4.96387C1.03418 4.66764 1.11393 4.36979 1.21484 4.07031C1.31576 3.76758 1.43294 3.4681 1.56641 3.17188C1.69987 2.87565 1.83984 2.59245 1.98633 2.32227C2.13281 2.05208 2.28255 1.80143 2.43555 1.57031C2.58854 1.33594 2.73503 1.13411 2.875 0.964844C3.16797 0.60026 3.3877 0.417969 3.53418 0.417969C3.68392 0.417969 3.83366 0.43099 3.9834 0.457031C4.13314 0.483073 4.26823 0.522135 4.38867 0.574219C4.66211 0.697917 4.79883 0.86556 4.79883 1.07715C4.79883 1.2041 4.74837 1.34082 4.64746 1.4873C4.54655 1.63379 4.43424 1.80632 4.31055 2.00488C3.97852 2.56152 3.7474 2.95703 3.61719 3.19141L3.29004 3.80664C3.09798 4.18424 3.00195 4.41699 3.00195 4.50488C3.00195 4.57975 3.0638 4.61719 3.1875 4.61719C3.23633 4.61719 3.41536 4.48372 3.72461 4.2168L4.54492 3.50391L7.1084 1.16016C7.2321 1.04622 7.30371 0.979492 7.32324 0.959961C7.52181 0.758138 7.7334 0.608398 7.95801 0.510742C8.18587 0.409831 8.39583 0.359375 8.58789 0.359375ZM13.1191 5.69141C13.1842 5.7793 13.2168 5.89974 13.2168 6.05273C13.2168 6.20247 13.1696 6.3457 13.0752 6.48242C12.9808 6.61589 12.8587 6.72982 12.709 6.82422C12.403 7.02279 12.0563 7.12207 11.6689 7.12207C11.2946 7.12207 11.0293 7.02604 10.873 6.83398C10.7884 6.72656 10.7461 6.59961 10.7461 6.45312C10.7461 6.16341 10.8942 5.90625 11.1904 5.68164C11.4867 5.45703 11.8398 5.34473 12.25 5.34473C12.6634 5.34473 12.9531 5.46029 13.1191 5.69141Z" fill="black"/>
</svg>
